<svg xmlns="http://www.w3.org/2000/svg" width="34" height="29" viewBox="0 0 34 29" fill="none">
<g clip-path="url(#clip0_533_1779)">
<path d="M6.09231 29.0001H0.106689V20.621H6.09231C7.52042 20.6216 8.89795 20.0909 9.95805 19.1316C10.5593 18.5896 11.0401 17.9269 11.3693 17.1864C11.6984 16.446 11.8685 15.6445 11.8685 14.8339C11.8685 14.0232 11.6984 13.2217 11.3693 12.4813C11.0401 11.7409 10.5593 11.0781 9.95805 10.5361C8.89685 9.57951 7.51944 9.05147 6.09231 9.05415H0.106689V0.664673H6.09231C9.84048 0.664673 13.4351 2.15734 16.0855 4.8143C18.7359 7.47125 20.2248 11.0749 20.2248 14.8324C20.2248 18.5899 18.7359 22.1935 16.0855 24.8505C13.4351 27.5074 9.84048 29.0001 6.09231 29.0001V29.0001Z" fill="#171E47"/>
<path d="M32.0956 13.6364H23.7373V28.8029H32.0956V13.6364Z" fill="#171E47"/>
<path d="M27.8824 10.4827C30.7595 10.4827 33.0919 8.14451 33.0919 5.26021C33.0919 2.37591 30.7595 0.0377197 27.8824 0.0377197C25.0052 0.0377197 22.6729 2.37591 22.6729 5.26021C22.6729 8.14451 25.0052 10.4827 27.8824 10.4827Z" fill="#171E47"/>
</g>
<defs>
<clipPath id="clip0_533_1779">
<rect width="33" height="28.9756" fill="white" transform="translate(0.106689 0.0244141)"/>
</clipPath>
</defs>
</svg>